<svg width="30" height="25" viewBox="0 0 30 25" fill="none" xmlns="http://www.w3.org/2000/svg">
<path d="M29.5052 2.90124C28.8391 3.19664 28.1476 3.42968 27.438 3.59839C28.2199 2.85541 28.8077 1.9261 29.1394 0.888816C29.234 0.59269 28.9124 0.336623 28.645 0.495175C27.6579 1.0807 26.5946 1.51996 25.4846 1.80088C25.4202 1.81718 25.3537 1.82544 25.287 1.82544C25.0848 1.82544 24.8883 1.75037 24.7337 1.61411C23.5527 0.573246 22.0337 0 20.4568 0C19.7744 0 19.0854 0.10636 18.409 0.316155C16.3131 0.966228 14.6959 2.6951 14.1885 4.82814C13.9981 5.62822 13.9466 6.42902 14.0352 7.20826C14.0454 7.29781 14.003 7.36031 13.9769 7.38962C13.9311 7.44101 13.8661 7.47047 13.7987 7.47047C13.7911 7.47047 13.7834 7.4701 13.7757 7.46937C9.18784 7.04313 5.05071 4.83282 2.12636 1.24569C1.97724 1.06272 1.69128 1.08516 1.57242 1.28904C0.999755 2.27149 0.697124 3.39518 0.697124 4.5386C0.697124 6.29094 1.40114 7.94233 2.62402 9.1462C2.10977 9.02427 1.61204 8.83224 1.14968 8.57544C0.925998 8.45117 0.650778 8.61089 0.647635 8.86674C0.615618 11.47 2.13974 13.7863 4.42293 14.8294C4.37695 14.8305 4.33097 14.831 4.28492 14.831C3.923 14.831 3.55655 14.7961 3.19588 14.7271C2.94398 14.679 2.73236 14.918 2.81057 15.1622C3.55166 17.4759 5.54376 19.1813 7.92768 19.5685C5.94917 20.8966 3.64515 21.5972 1.24712 21.5972L0.499536 21.5968C0.2692 21.5968 0.0743896 21.7469 0.0156908 21.97C-0.0421309 22.1898 0.064375 22.4216 0.260793 22.5358C2.96299 24.1084 6.04522 24.9395 9.17563 24.9395C11.9158 24.9395 14.4789 24.3958 16.794 23.3234C18.9163 22.3403 20.7917 20.9349 22.3682 19.1464C23.8367 17.4803 24.9851 15.557 25.7813 13.43C26.5403 11.4024 26.9415 9.23896 26.9415 7.17346V7.07507C26.9414 6.74342 27.0914 6.43136 27.3531 6.21893C28.3462 5.41265 29.2109 4.46352 29.9233 3.39795C30.1114 3.11659 29.8147 2.76396 29.5052 2.90124Z" transform="translate(3.05176e-05 0.0358887)" fill="#76A9EA"/>
</svg>
