<svg width="96" height="88" viewBox="0 0 96 88" fill="none" xmlns="http://www.w3.org/2000/svg">
<path d="M39.9998 61.4866H3.47811V3.5138H76.5215V32.5002C76.5215 33.471 77.2992 34.2571 78.2607 34.2571C79.2222 34.2571 80 33.4715 80 32.5002V1.7569C80 0.78611 79.2222 0 78.2607 0H1.73927C0.777785 0.000442879 0 0.78611 0 1.7569V63.2431C0 64.2139 0.777785 65 1.73927 65H40.0002C40.9613 65 41.7395 64.2143 41.7395 63.2431C41.7391 62.2723 40.9613 61.4866 39.9998 61.4866Z" fill="black"/>
<path d="M32.9996 47.4825H3.47352V36.7796L12.3323 27.8098L24.1557 36.5908C24.8221 37.0869 25.7434 37.0372 26.3538 36.4706L44.8821 19.3428L52.4282 30.0385C52.9847 30.8286 54.0701 31.0121 54.8504 30.4473C55.6307 29.8838 55.8119 28.7848 55.2541 27.9947L46.5701 15.6843C46.282 15.2738 45.834 15.0095 45.3406 14.9576C44.8524 14.9044 44.3532 15.0676 43.9872 15.4076L25.0634 32.9021L13.1856 24.0813C12.4938 23.5679 11.5354 23.6415 10.9298 24.2564L3.47352 31.8062V3.51752H62.526V25.5C62.526 26.4718 63.3028 27.2588 64.263 27.2588C65.2228 27.2588 66 26.4723 66 25.5V1.75876C66 0.786941 65.2232 0 64.263 0H1.73698C0.777197 0 0 0.786498 0 1.75876V49.2412C0 50.2131 0.776759 51 1.73698 51H33C33.9598 51 34.737 50.2135 34.737 49.2412C34.7365 48.2699 33.9598 47.4825 32.9996 47.4825Z" transform="translate(7 7)" fill="black"/>
<path fill-rule="evenodd" clip-rule="evenodd" d="M0 24.5C0 10.9907 10.9907 0 24.5 0C38.0098 0 49 10.9907 49 24.5C49 38.0093 38.0093 49 24.5 49C10.9907 49 0 38.0093 0 24.5ZM3.5 24.5009C3.5 36.081 12.9199 45.501 24.5 45.501C36.0806 45.501 45.5005 36.081 45.5005 24.5009C45.5005 12.9208 36.0801 3.50076 24.5 3.50076C12.9199 3.50076 3.5 12.9208 3.5 24.5009Z" transform="translate(47 39)" fill="black"/>
<path d="M15.7499 0H12.2501V12.2499H0V15.7497H12.2501V28H15.7499V15.7497H28V12.2499H15.7499V0Z" transform="translate(57 49)" fill="black"/>
<path fill-rule="evenodd" clip-rule="evenodd" d="M7 14C3.13916 14 0 10.8607 0 7C0 3.13934 3.13916 0 7 0C10.8608 0 14 3.13934 14 7C14 10.8607 10.8608 14 7 14ZM7 10.4998C8.9292 10.4998 10.4995 8.92923 10.4995 7C10.4995 5.07077 8.9292 3.50021 7 3.50021C5.07031 3.50021 3.5 5.07077 3.5 7C3.5 8.92923 5.07031 10.4998 7 10.4998Z" transform="translate(19 14)" fill="black"/>
</svg>
